<svg id="Layer_1" data-name="Layer 1" xmlns="http://www.w3.org/2000/svg" viewBox="0 0 302.74 248.33"><defs></defs><title>spectre [Converted]</title><path class="cls-1" d="M152,143.73c17.4,2.61,37.52,14.93,39.43,34,1.75,17.52-19.07,32.25-13.9,49.52,4.23,14.11,22.26,5.92,31,1.29,18.54-9.81,37.8-19.19,59.52-16.39,39.27,5.06,39.58,62.85,28.25,91.37-2.3,5.78-7.22,13.9-10.79,4.42-2.43-6.44,1.8-17.55,2.33-24.34,1.15-14.75,1.75-36.41-14.39-43.54-14.91-6.58-19.78,9.72-20.15,21.54-.57,18.39,4.85,35.58,1,54.18-.73,3.51-2.21,13.34-6.14,15.11-6.6,3-7.43-5.64-7.48-10.47-.19-18.44,8.84-37-1.24-54.75-10.52-18.55-30.37-11.28-34.57,7.05-3.51,15.3.62,31.08,0,46.5C204.47,327,195,353,193,333c-1.62-16.56,9.36-50.38-9.35-61.2-31.16-18-26.18,85.21-26,97.73.06,5.09,1.37,17.32-3.44,21.12-8.38,6.62-8.13-11.36-8.56-16.22-2-22.36-1.76-45-2.93-67.39-.61-11.65-.11-36.47-15.95-38.82-20.93-3.1-18.09,34.25-17.26,45.59.31,4.31,3.66,32.47-5.19,26.59-5.16-3.43-4.34-17.19-4.8-22.21-1.54-16.76.14-49.21-13.56-61.7C78.93,250,70.13,255,65.15,261.79c-9.07,12.41-6.67,31.74-5.44,46.06.53,6.14,5.05,26.66-5.38,25-12.87-2-8.85-30.15-7.95-38.51,1.68-15.64,9.38-36.53-2.18-50.12s-21.62-1.06-25.61,11.13c-3.76,11.46-2.25,21.35-1.53,33.08.33,5.39,2.29,28.74-8.92,21.14-8.42-5.71-7.83-27-8.07-35.79-.45-16.43,1-34,11.21-47.59,22.45-30.05,59.15-1.89,85.27,6.12,9.56,2.93,27.94,6.28,29.6-7.88,1.08-9.21-7-16.05-11.25-23.18-6-10-6.77-20.51-2.27-31.27C119.53,153.5,135.75,147.55,152,143.73Z" transform="translate(0 -143.73)"/></svg>